<?xml version="1.0" encoding="UTF-8" standalone="no"?>
<!-- Created with Inkscape (http://www.inkscape.org/) -->

<svg
   xmlns:dc="http://purl.org/dc/elements/1.1/"
   xmlns:cc="http://creativecommons.org/ns#"
   xmlns:rdf="http://www.w3.org/1999/02/22-rdf-syntax-ns#"
   xmlns:svg="http://www.w3.org/2000/svg"
   xmlns="http://www.w3.org/2000/svg"
   xmlns:xlink="http://www.w3.org/1999/xlink"
   xmlns:sodipodi="http://sodipodi.sourceforge.net/DTD/sodipodi-0.dtd"
   xmlns:inkscape="http://www.inkscape.org/namespaces/inkscape"
   width="210mm"
   height="297mm"
   viewBox="0 0 744.09448819 1052.3622047"
   id="svg2"
   version="1.1"
   inkscape:version="0.91 r13725"
   sodipodi:docname="logo.svg">
  <defs
     id="defs4" />
  <sodipodi:namedview
     id="base"
     pagecolor="#ffffff"
     bordercolor="#666666"
     borderopacity="1.0"
     inkscape:pageopacity="0.0"
     inkscape:pageshadow="2"
     inkscape:zoom="0.35"
     inkscape:cx="-827.85714"
     inkscape:cy="405.71429"
     inkscape:document-units="px"
     inkscape:current-layer="layer1"
     showgrid="false"
     inkscape:window-width="3113"
     inkscape:window-height="1767"
     inkscape:window-x="87"
     inkscape:window-y="33"
     inkscape:window-maximized="1" />
  <metadata
     id="metadata7">
    <rdf:RDF>
      <cc:Work
         rdf:about="">
        <dc:format>image/svg+xml</dc:format>
        <dc:type
           rdf:resource="http://purl.org/dc/dcmitype/StillImage" />
        <dc:title />
      </cc:Work>
    </rdf:RDF>
  </metadata>
  <g
     inkscape:label="Layer 1"
     inkscape:groupmode="layer"
     id="layer1">
    <g
       id="g4512"
       transform="matrix(0.58349816,0,0,0.58349816,-1178.0272,268.2124)">
      <path
         inkscape:connector-curvature="0"
         id="path3453"
         d="m 108.6956,290.61569 0,-45.65519 18.67752,0 18.67752,0 13.48462,13.49943 13.48462,13.49941 -32.16213,32.15576 -32.16215,32.15577 0,-45.65518 z"
         style="fill:#77ed67;fill-opacity:1;stroke:none" />
      <path
         inkscape:connector-curvature="0"
         id="path3455"
         d="m 61.003871,290.80373 -45.838748,-45.84323 46.025835,0 46.025842,0 0,45.84323 c 0,25.21376 -0.0842,45.84322 -0.18709,45.84322 -0.10291,0 -20.81453,-20.62946 -46.025839,-45.84322 z"
         style="fill:#15b33e;fill-opacity:1;stroke:none" />
      <path
         inkscape:connector-curvature="0"
         id="path3457"
         d="m 48.062196,211.31955 32.155768,-32.16214 13.499416,13.48463 13.49942,13.48462 0,18.67751 0,18.67752 -45.655188,0 -45.65518,0 32.155764,-32.16214 z"
         style="fill:#67edbc;fill-opacity:1;stroke:none" />
      <path
         inkscape:connector-curvature="0"
         id="path3459"
         d="m 14.05154,177.67449 0,-64.69598 32.34799,32.34799 32.347994,32.34799 -32.347994,32.34799 -32.34799,32.34799 0,-64.69598 z"
         style="fill:#16b0b2;fill-opacity:1;stroke:none" />
      <path
         inkscape:connector-curvature="0"
         id="path3461"
         d="m 48.062196,144.02942 -32.155764,-32.16213 45.65518,0 45.655188,0 0,18.67752 0,18.67751 -13.49942,13.48462 -13.499416,13.48463 -32.155768,-32.16215 z"
         style="fill:#67b9ed;fill-opacity:1;stroke:none" />
      <path
         inkscape:connector-curvature="0"
         id="path3463"
         d="M 61.003871,64.545251 C 86.21518,39.33148 106.9268,18.702031 107.02971,18.702031 c 0.10289,0 0.18709,20.629449 0.18709,45.84322 l 0,45.843219 -46.025842,0 -46.025835,0 45.838748,-45.843219 z"
         style="fill:#153bb3;fill-opacity:1;stroke:none" />
      <path
         inkscape:connector-curvature="0"
         id="path3465"
         d="m 108.6956,64.733289 0,-45.655181 32.16215,32.155765 32.16213,32.155765 -13.48462,13.499415 -13.48462,13.499417 -18.67752,0 -18.67752,0 0,-45.655181 z"
         style="fill:#7b67ed;fill-opacity:1;stroke:none" />
      <path
         inkscape:connector-curvature="0"
         id="path3467"
         d="m 141.96892,49.387412 -32.15783,-32.164195 64.69172,0 64.69172,0 -32.15782,32.164195 c -17.6868,17.690307 -32.32706,32.164195 -32.5339,32.164195 -0.20685,0 -14.84709,-14.473888 -32.53389,-32.164195 z"
         style="fill:#6716b2;fill-opacity:1;stroke:none" />
      <path
         inkscape:connector-curvature="0"
         id="path3469"
         d="m 189.47036,96.889053 -13.48462,-13.499415 32.16214,-32.155765 32.16213,-32.155765 0,45.655181 0,45.655181 -18.67751,0 -18.67752,0 -13.48462,-13.499417 z"
         style="fill:#df67ed;fill-opacity:1;stroke:none" />
      <path
         inkscape:connector-curvature="0"
         id="path3471"
         d="m 243.09593,62.640999 0,-45.656114 45.47352,45.469008 c 25.01043,25.007954 45.47351,45.553207 45.47351,45.656117 0,0.10291 -20.46308,0.1871 -45.47351,0.1871 l -45.47352,0 0,-45.656111 z"
         style="fill:#b21688;fill-opacity:1;stroke:none" />
      <path
         inkscape:connector-curvature="0"
         id="path3473"
         d="m 255.27551,162.6942 -13.48668,-13.50147 0,-18.66272 0,-18.66272 45.65518,0 45.65518,0 -32.15782,32.16419 c -17.6868,17.69031 -32.16263,32.1642 -32.1685,32.1642 -0.006,0 -6.07969,-6.07567 -13.49736,-13.50148 z"
         style="fill:#ed6796;fill-opacity:1;stroke:none" />
      <path
         inkscape:connector-curvature="0"
         id="path3475"
         d="m 302.0494,209.4679 -31.78912,-31.79557 31.9772,-31.9772 31.9772,-31.97719 0,63.77276 c 0,35.07503 -0.0846,63.77277 -0.18808,63.77277 -0.10344,0 -14.49318,-14.30801 -31.9772,-31.79557 z"
         style="fill:#b21616;fill-opacity:1;stroke:none" />
      <path
         inkscape:connector-curvature="0"
         id="path3477"
         d="m 241.78883,224.80417 0,-18.67751 13.49941,-13.48462 13.49942,-13.48463 32.15577,32.16214 32.15576,32.16214 -45.65518,0 -45.65518,0 0,-18.67752 z"
         style="fill:#ed9a67;fill-opacity:1;stroke:none" />
      <path
         inkscape:connector-curvature="0"
         id="path3479"
         d="m 241.78883,290.43402 0,-45.47352 45.65611,0 45.65611,0 -45.469,45.47352 c -25.00796,25.01043 -45.55321,45.47352 -45.65612,45.47352 -0.1029,0 -0.1871,-20.46309 -0.1871,-45.47352 z"
         style="fill:#b28c16;fill-opacity:1;stroke:none" />
      <path
         inkscape:connector-curvature="0"
         id="path3481"
         d="m 207.9556,303.92287 -31.97832,-31.98466 13.50364,-13.48885 13.50365,-13.48886 18.66272,0 18.66272,0 0,45.47352 c 0,25.01043 -0.0846,45.47352 -0.18804,45.47352 -0.10341,0 -14.57828,-14.3931 -32.16637,-31.98467 z"
         style="fill:#dbed67;fill-opacity:1;stroke:none" />
      <path
         inkscape:connector-curvature="0"
         id="path3483"
         d="m 142.52454,305.40808 31.97827,-31.97827 31.97827,31.97827 31.97828,31.97827 -63.95655,0 -63.95655,0 31.97828,-31.97827 z"
         style="fill:#63b216;fill-opacity:1;stroke:none" />
      <path
         inkscape:connector-curvature="0"
         id="path3485"
         d="m 161.19083,257.15805 -12.92643,-12.94228 13.1192,-13.1192 13.11921,-13.1192 13.1192,13.1192 13.11921,13.1192 -12.92643,12.94228 c -7.10954,7.11826 -13.09993,12.94228 -13.31198,12.94228 -0.21205,0 -6.20245,-5.82402 -13.31198,-12.94228 z"
         style="fill:#c7f39d;fill-opacity:1;stroke:none" />
      <path
         inkscape:connector-curvature="0"
         id="path3487"
         d="m 108.6956,224.62682 0,-18.85487 18.48518,0 18.48517,0 0,18.85487 0,18.85487 -18.48517,0 -18.48518,0 0,-18.85487 z"
         style="fill:#9df3b3;fill-opacity:1;stroke:none" />
      <path
         inkscape:connector-curvature="0"
         id="path3489"
         d="m 147.88416,223.69441 0,-17.92246 7.22773,0 7.22772,0 5.33759,5.37345 5.33759,5.37345 -12.56531,12.549 -12.56532,12.54901 0,-17.92245 z"
         style="fill:#c7f8c0;fill-opacity:1;stroke:none" />
      <path
         inkscape:connector-curvature="0"
         id="path3491"
         d="m 122.55356,191.54965 12.74348,-12.74348 5.18445,5.14473 5.18446,5.14473 0,7.59875 0,7.59875 -17.92794,0 -17.92793,0 12.74348,-12.74348 z"
         style="fill:#c0f8e3;fill-opacity:1;stroke:none" />
      <path
         inkscape:connector-curvature="0"
         id="path3493"
         d="m 94.64422,190.61145 -12.926432,-12.94228 13.119208,-13.11921 13.119204,-13.1192 13.1192,13.1192 13.11921,13.11921 -12.92643,12.94228 c -7.10954,7.11825 -13.09993,12.94228 -13.31198,12.94228 -0.21205,0 -6.20244,-5.82403 -13.31198,-12.94228 z"
         style="fill:#9df2f3;fill-opacity:1;stroke:none" />
      <path
         inkscape:connector-curvature="0"
         id="path3495"
         d="m 122.37464,163.62576 -12.55361,-12.56991 17.92246,0 17.92246,0 0,7.59875 0,7.59874 -5.00955,4.97117 c -2.75526,2.73414 -5.17124,4.97117 -5.36886,4.97117 -0.19762,0 -6.00842,-5.65647 -12.9129,-12.56992 z"
         style="fill:#c0e2f8;fill-opacity:1;stroke:none" />
      <path
         inkscape:connector-curvature="0"
         id="path3497"
         d="m 108.6956,130.35245 0,-18.48516 18.48518,0 18.48517,0 0,18.48516 0,18.48517 -18.48517,0 -18.48518,0 0,-18.48517 z"
         style="fill:#9db1f3;fill-opacity:1;stroke:none" />
      <path
         inkscape:connector-curvature="0"
         id="path3499"
         d="m 147.88416,131.28487 0,-17.55275 12.56474,12.54842 12.56473,12.54843 -4.96598,5.00432 -4.96598,5.00433 -7.59875,0 -7.59876,0 0,-17.55275 z"
         style="fill:#c8c0f8;fill-opacity:1;stroke:none" />
      <path
         inkscape:connector-curvature="0"
         id="path3501"
         d="m 161.19083,124.06484 -12.92643,-12.94228 13.1192,-13.119211 13.11921,-13.119205 13.1192,13.119205 13.11921,13.119211 -12.92643,12.94228 c -7.10954,7.11825 -13.09993,12.94228 -13.31198,12.94228 -0.21205,0 -6.20245,-5.82403 -13.31198,-12.94228 z"
         style="fill:#ca9df3;fill-opacity:1;stroke:none" />
      <path
         inkscape:connector-curvature="0"
         id="path3503"
         d="m 180.77923,143.65317 -5.14473,-5.18446 12.74347,-12.74348 12.74348,-12.74348 0,17.92794 0,17.92793 -7.59874,0 -7.59875,0 -5.14473,-5.18445 z"
         style="fill:#f2c0f8;fill-opacity:1;stroke:none" />
      <path
         inkscape:connector-curvature="0"
         id="path3505"
         d="m 202.60027,130.35245 0,-18.48516 18.85487,0 18.85487,0 0,18.48516 0,18.48517 -18.85487,0 -18.85487,0 0,-18.48517 z"
         style="fill:#f39ddc;fill-opacity:1;stroke:none" />
      <path
         inkscape:connector-curvature="0"
         id="path3507"
         d="m 207.94246,170.81759 -5.34219,-5.37809 0,-7.19183 0,-7.19182 17.92245,0 17.92246,0 -12.5536,12.56991 c -6.90448,6.91345 -12.5656,12.56992 -12.58026,12.56992 -0.0146,0 -2.43065,-2.42015 -5.36886,-5.37809 l 0,0 z"
         style="fill:#f8c0d4;fill-opacity:1;stroke:none" />
      <path
         inkscape:connector-curvature="0"
         id="path3509"
         d="m 227.73744,190.61145 -12.92643,-12.94228 13.11921,-13.11921 13.1192,-13.1192 13.11921,13.1192 13.1192,13.11921 -12.92643,12.94228 c -7.10953,7.11825 -13.09992,12.94228 -13.31198,12.94228 -0.21205,0 -6.20244,-5.82403 -13.31198,-12.94228 z"
         style="fill:#f39d9d;fill-opacity:1;stroke:none" />
      <path
         inkscape:connector-curvature="0"
         id="path3511"
         d="m 202.60027,197.06541 0,-7.22772 5.37345,-5.33759 5.37345,-5.33759 12.54901,12.56531 12.549,12.56531 -17.92246,0 -17.92245,0 0,-7.22772 z"
         style="fill:#f8d5c0;fill-opacity:1;stroke:none" />
      <path
         inkscape:connector-curvature="0"
         id="path3513"
         d="m 202.60027,224.62682 0,-18.85487 18.85487,0 18.85487,0 0,18.85487 0,18.85487 -18.85487,0 -18.85487,0 0,-18.85487 z"
         style="fill:#f3de9d;fill-opacity:1;stroke:none" />
      <path
         inkscape:connector-curvature="0"
         id="path3515"
         d="m 188.18703,229.43816 -12.54842,-12.56472 5.5137,-5.55075 5.5137,-5.55074 7.22772,0 7.22772,0 0,18.11546 c 0,9.96351 -0.0868,18.11547 -0.19301,18.11547 -0.10615,0 -5.83979,-5.65412 -12.74141,-12.56472 z"
         style="fill:#f0f8c0;fill-opacity:1;stroke:none" />
      <path
         inkscape:connector-curvature="0"
         id="path3517"
         d="m 169.32696,210.57809 -4.76342,-4.80614 9.56957,0 9.56957,0 -4.76343,4.80614 c -2.61988,2.64338 -4.78265,4.80615 -4.80614,4.80615 -0.0235,0 -2.18627,-2.16277 -4.80615,-4.80615 z"
         style="fill:#a0a0a0;stroke:none" />
      <path
         inkscape:connector-curvature="0"
         id="path3519"
         d="m 155.44988,196.70159 -7.56572,-7.59154 0,-11.4614 0,-11.46139 7.59155,-7.56571 7.59154,-7.5657 11.09109,0 11.09109,0 7.93601,7.96069 7.93601,7.9607 0,10.72193 0,10.72194 -7.96069,7.93601 -7.9607,7.93601 -11.09224,0 -11.09224,0 -7.5657,-7.59154 z"
         style="fill:#ffffff;fill-opacity:1;stroke:none" />
      <path
         inkscape:connector-curvature="0"
         id="path3521"
         d="m 202.66978,177.63616 0,-9.88871 4.94435,4.94436 4.94435,4.94435 -4.94435,4.94435 -4.94435,4.94435 0,-9.8887 z"
         style="fill:#a0a0a0;stroke:none" />
      <path
         inkscape:connector-curvature="0"
         id="path3523"
         d="m 194.35145,197.69257 c 3.81155,-3.81257 6.95131,-6.93194 6.97723,-6.93194 0.0259,0 0.0471,3.11937 0.0471,6.93194 l 0,6.93193 -6.97723,0 -6.97722,0 6.93009,-6.93193 z"
         style="fill:#a0a0a0;stroke:none" />
      <path
         inkscape:connector-curvature="0"
         id="path3525"
         d="m 194.35145,157.57975 -6.93009,-6.93194 6.97723,0 6.97723,0 0,6.93194 c 0,3.81257 -0.0212,6.93194 -0.0471,6.93194 -0.0259,0 -3.16568,-3.11937 -6.97723,-6.93194 z"
         style="fill:#a0a0a0;stroke:none" />
      <path
         inkscape:connector-curvature="0"
         id="path3527"
         d="m 169.44312,144.40949 4.94435,-4.94434 4.94435,4.94434 4.94435,4.94436 -9.8887,0 -9.8887,0 4.94435,-4.94436 z"
         style="fill:#a0a0a0;stroke:none" />
      <path
         inkscape:connector-curvature="0"
         id="path3529"
         d="m 147.39912,157.67217 0,-7.02436 7.06967,0 7.06966,0 -7.02253,7.02436 c -3.8624,3.8634 -7.04375,7.02437 -7.06967,7.02437 -0.0259,0 -0.0471,-3.16097 -0.0471,-7.02437 z"
         style="fill:#a0a0a0;stroke:none" />
      <path
         inkscape:connector-curvature="0"
         id="path3531"
         d="m 141.20616,182.62673 -4.98885,-4.99143 5.03635,-5.03636 5.03635,-5.03635 0,10.02778 c 0,5.51528 -0.0214,10.02778 -0.0475,10.02778 -0.0262,0 -2.29248,-2.24614 -5.03635,-4.99142 z"
         style="fill:#a0a0a0;stroke:none" />
      <path
         inkscape:connector-curvature="0"
         id="path3533"
         d="m 147.39912,197.55484 0,-7.06967 7.02437,7.02255 c 3.8634,3.86239 7.02436,7.04374 7.02436,7.06966 0,0.0259 -3.16096,0.0471 -7.02436,0.0471 l -7.02437,0 0,-7.06966 z"
         style="fill:#a0a0a0;stroke:none" />
      <g
         transform="translate(0.68686329,1.4044991)"
         id="axes1">
        <g
           id="patch2" />
        <g
           id="line2d1">
          <defs
             id="defs15">
            <clipPath
               id="pf8859f6aad91b7e591ccd839dbce38b9">
              <rect
                 x="7.1999998"
                 y="7.1999998"
                 width="334.79999"
                 height="334.79999"
                 id="rect18" />
            </clipPath>
          </defs>
          <path
             style="fill:none;stroke:#000000;stroke-width:8;stroke-linecap:square;stroke-linejoin:round;stroke-miterlimit:4;stroke-dasharray:none"
             clip-path="url(#pf8859f6aad91b7e591ccd839dbce38b9)"
             d="m 13.638462,241.27245 133.344908,0"
             id="path20"
             inkscape:connector-curvature="0" />
        </g>
        <g
           id="line2d2">
          <path
             style="fill:none;stroke:#000000;stroke-width:8;stroke-linecap:square;stroke-linejoin:round;stroke-miterlimit:4;stroke-dasharray:none"
             clip-path="url(#pf8859f6aad91b7e591ccd839dbce38b9)"
             d="m 202.21663,241.27245 0,-133.3449"
             id="path23"
             inkscape:connector-curvature="0" />
        </g>
        <g
           id="line2d3">
          <path
             style="fill:none;stroke:#000000;stroke-width:8;stroke-linecap:square;stroke-linejoin:round;stroke-miterlimit:4;stroke-dasharray:none"
             clip-path="url(#pf8859f6aad91b7e591ccd839dbce38b9)"
             d="m 13.638462,107.92755 133.344908,0"
             id="path26"
             inkscape:connector-curvature="0" />
        </g>
        <g
           id="line2d4">
          <path
             style="fill:none;stroke:#000000;stroke-width:8;stroke-linecap:square;stroke-linejoin:round;stroke-miterlimit:4;stroke-dasharray:none"
             clip-path="url(#pf8859f6aad91b7e591ccd839dbce38b9)"
             d="m 335.56154,241.27245 0,-133.3449"
             id="path29"
             inkscape:connector-curvature="0" />
        </g>
        <g
           id="line2d5">
          <path
             style="fill:none;stroke:#000000;stroke-width:8;stroke-linecap:square;stroke-linejoin:round;stroke-miterlimit:4;stroke-dasharray:none"
             clip-path="url(#pf8859f6aad91b7e591ccd839dbce38b9)"
             d="m 107.92755,202.21663 133.3449,0"
             id="path32"
             inkscape:connector-curvature="0" />
        </g>
        <g
           id="line2d6">
          <path
             style="fill:none;stroke:#000000;stroke-width:8;stroke-linecap:square;stroke-linejoin:round;stroke-miterlimit:4;stroke-dasharray:none"
             clip-path="url(#pf8859f6aad91b7e591ccd839dbce38b9)"
             d="m 241.27245,146.98337 0,-133.344908"
             id="path35"
             inkscape:connector-curvature="0" />
        </g>
        <g
           id="line2d7">
          <path
             style="fill:none;stroke:#000000;stroke-width:8;stroke-linecap:square;stroke-linejoin:round;stroke-miterlimit:4;stroke-dasharray:none"
             clip-path="url(#pf8859f6aad91b7e591ccd839dbce38b9)"
             d="m 107.92755,13.638462 133.3449,0"
             id="path38"
             inkscape:connector-curvature="0" />
        </g>
        <g
           id="line2d8">
          <path
             transform="matrix(0.98523675,0,0,0.99307867,3.5185644,0.97392086)"
             style="fill:none;stroke:#000000;stroke-width:8;stroke-linecap:square;stroke-linejoin:round;stroke-miterlimit:4;stroke-dasharray:none"
             clip-path="url(#pf8859f6aad91b7e591ccd839dbce38b9)"
             d="M 335.56154,241.27245 241.27245,146.98337"
             id="path41"
             inkscape:connector-curvature="0" />
        </g>
        <g
           id="line2d9">
          <path
             style="fill:none;stroke:#000000;stroke-width:8;stroke-linecap:square;stroke-linejoin:round;stroke-miterlimit:4;stroke-dasharray:none"
             clip-path="url(#pf8859f6aad91b7e591ccd839dbce38b9)"
             d="m 107.92755,146.98337 133.3449,0"
             id="path44"
             inkscape:connector-curvature="0" />
        </g>
        <g
           id="line2d10">
          <path
             transform="matrix(0.94418228,0,0,0.95622381,17.45073,1.9662945)"
             style="fill:none;stroke:#000000;stroke-width:8;stroke-linecap:square;stroke-linejoin:round;stroke-miterlimit:4;stroke-dasharray:none"
             clip-path="url(#pf8859f6aad91b7e591ccd839dbce38b9)"
             d="M 335.56154,107.92755 241.27245,13.638462"
             id="path47"
             inkscape:connector-curvature="0" />
        </g>
        <g
           id="line2d11">
          <path
             style="fill:none;stroke:#000000;stroke-width:8;stroke-linecap:square;stroke-linejoin:round;stroke-miterlimit:4;stroke-dasharray:none"
             clip-path="url(#pf8859f6aad91b7e591ccd839dbce38b9)"
             d="m 107.92755,202.21663 94.28908,-94.28908"
             id="path50"
             inkscape:connector-curvature="0" />
        </g>
        <g
           id="line2d12">
          <path
             style="fill:none;stroke:#000000;stroke-width:8;stroke-linecap:square;stroke-linejoin:round;stroke-miterlimit:4;stroke-dasharray:none"
             clip-path="url(#pf8859f6aad91b7e591ccd839dbce38b9)"
             d="m 202.21663,241.27245 133.34491,0"
             id="path53"
             inkscape:connector-curvature="0" />
        </g>
        <g
           id="line2d13">
          <path
             transform="matrix(0.99700145,0,0,0.98131762,0.64984385,4.4640572)"
             style="fill:none;stroke:#000000;stroke-width:8;stroke-linecap:square;stroke-linejoin:round;stroke-miterlimit:4;stroke-dasharray:none"
             clip-path="url(#pf8859f6aad91b7e591ccd839dbce38b9)"
             d="m 107.92755,335.56154 94.28908,-94.28909"
             id="path56"
             inkscape:connector-curvature="0" />
        </g>
        <g
           id="line2d14">
          <path
             style="fill:none;stroke:#000000;stroke-width:8;stroke-linecap:square;stroke-linejoin:round;stroke-miterlimit:4;stroke-dasharray:none"
             clip-path="url(#pf8859f6aad91b7e591ccd839dbce38b9)"
             d="M 202.21663,241.27245 107.92755,146.98337"
             id="path59"
             inkscape:connector-curvature="0" />
        </g>
        <g
           id="line2d15">
          <path
             transform="matrix(0.96355097,0,0,0.97139288,8.6640024,5.9149793)"
             style="fill:none;stroke:#000000;stroke-width:8;stroke-linecap:square;stroke-linejoin:round;stroke-miterlimit:4;stroke-dasharray:none"
             clip-path="url(#pf8859f6aad91b7e591ccd839dbce38b9)"
             d="m 241.27245,202.21663 94.28909,-94.28908"
             id="path62"
             inkscape:connector-curvature="0" />
        </g>
        <g
           id="line2d16">
          <path
             transform="matrix(0.9674713,0,0,0.9674713,3.6408574,4.6510627)"
             style="fill:none;stroke:#000000;stroke-width:8;stroke-linecap:square;stroke-linejoin:round;stroke-miterlimit:4;stroke-dasharray:none"
             clip-path="url(#pf8859f6aad91b7e591ccd839dbce38b9)"
             d="M 13.638462,241.27245 107.92755,146.98337"
             id="path65"
             inkscape:connector-curvature="0" />
        </g>
        <g
           id="line2d17">
          <path
             transform="matrix(0.94338423,0,0,0.94873227,2.4048868,2.0519496)"
             style="fill:none;stroke:#000000;stroke-width:8;stroke-linecap:square;stroke-linejoin:round;stroke-miterlimit:4;stroke-dasharray:none"
             clip-path="url(#pf8859f6aad91b7e591ccd839dbce38b9)"
             d="M 13.638462,107.92755 107.92755,13.638462"
             id="path68"
             inkscape:connector-curvature="0" />
        </g>
        <g
           id="line2d18">
          <path
             style="fill:none;stroke:#000000;stroke-width:8;stroke-linecap:square;stroke-linejoin:round;stroke-miterlimit:4;stroke-dasharray:none"
             clip-path="url(#pf8859f6aad91b7e591ccd839dbce38b9)"
             d="m 13.638462,241.27245 0,-133.3449"
             id="path71"
             inkscape:connector-curvature="0" />
        </g>
        <g
           id="line2d19">
          <path
             transform="matrix(1.0040885,0,0,0.96527304,-0.66298786,3.8100374)"
             style="fill:none;stroke:#000000;stroke-width:8;stroke-linecap:square;stroke-linejoin:round;stroke-miterlimit:4;stroke-dasharray:none"
             clip-path="url(#pf8859f6aad91b7e591ccd839dbce38b9)"
             d="M 146.98337,107.92755 241.27245,13.638462"
             id="path74"
             inkscape:connector-curvature="0" />
        </g>
        <g
           id="line2d20">
          <path
             style="fill:none;stroke:#000000;stroke-width:8;stroke-linecap:square;stroke-linejoin:round;stroke-miterlimit:4;stroke-dasharray:none"
             clip-path="url(#pf8859f6aad91b7e591ccd839dbce38b9)"
             d="m 202.21663,107.92755 133.34491,0"
             id="path77"
             inkscape:connector-curvature="0" />
        </g>
        <g
           id="line2d21">
          <path
             style="fill:none;stroke:#000000;stroke-width:8;stroke-linecap:square;stroke-linejoin:round;stroke-miterlimit:4;stroke-dasharray:none"
             clip-path="url(#pf8859f6aad91b7e591ccd839dbce38b9)"
             d="m 107.92755,335.56154 0,-133.34491"
             id="path80"
             inkscape:connector-curvature="0" />
        </g>
        <g
           id="line2d22">
          <path
             transform="matrix(0.93478945,0,0,0.9387104,2.8545835,18.970924)"
             style="fill:none;stroke:#000000;stroke-width:8;stroke-linecap:square;stroke-linejoin:round;stroke-miterlimit:4;stroke-dasharray:none"
             clip-path="url(#pf8859f6aad91b7e591ccd839dbce38b9)"
             d="M 107.92755,335.56154 13.638462,241.27245"
             id="path83"
             inkscape:connector-curvature="0" />
        </g>
        <g
           id="line2d23">
          <path
             style="fill:none;stroke:#000000;stroke-width:8;stroke-linecap:square;stroke-linejoin:round;stroke-miterlimit:4;stroke-dasharray:none"
             clip-path="url(#pf8859f6aad91b7e591ccd839dbce38b9)"
             d="m 146.98337,241.27245 0,-133.3449"
             id="path86"
             inkscape:connector-curvature="0" />
        </g>
        <g
           id="line2d24">
          <path
             transform="matrix(0.99064948,0,0,0.96846921,1.9728437,3.4850551)"
             style="fill:none;stroke:#000000;stroke-width:8;stroke-linecap:square;stroke-linejoin:round;stroke-miterlimit:4;stroke-dasharray:none"
             clip-path="url(#pf8859f6aad91b7e591ccd839dbce38b9)"
             d="M 202.21663,107.92755 107.92755,13.638462"
             id="path89"
             inkscape:connector-curvature="0" />
        </g>
        <g
           id="line2d25">
          <path
             transform="matrix(0.97816103,0,0,0.98208199,3.1304441,4.2436015)"
             style="fill:none;stroke:#000000;stroke-width:8;stroke-linecap:square;stroke-linejoin:round;stroke-miterlimit:4;stroke-dasharray:none"
             clip-path="url(#pf8859f6aad91b7e591ccd839dbce38b9)"
             d="M 241.27245,335.56154 146.98337,241.27245"
             id="path92"
             inkscape:connector-curvature="0" />
        </g>
        <g
           id="line2d26">
          <path
             style="fill:none;stroke:#000000;stroke-width:8;stroke-linecap:square;stroke-linejoin:round;stroke-miterlimit:4;stroke-dasharray:none"
             clip-path="url(#pf8859f6aad91b7e591ccd839dbce38b9)"
             d="m 241.27245,335.56154 0,-133.34491"
             id="path95"
             inkscape:connector-curvature="0" />
        </g>
        <g
           id="line2d27">
          <path
             style="fill:none;stroke:#000000;stroke-width:8;stroke-linecap:square;stroke-linejoin:round;stroke-miterlimit:4;stroke-dasharray:none"
             clip-path="url(#pf8859f6aad91b7e591ccd839dbce38b9)"
             d="M 241.27245,202.21663 146.98337,107.92755"
             id="path98"
             inkscape:connector-curvature="0" />
        </g>
        <g
           id="line2d28">
          <path
             style="fill:none;stroke:#000000;stroke-width:8;stroke-linecap:square;stroke-linejoin:round;stroke-miterlimit:4;stroke-dasharray:none"
             clip-path="url(#pf8859f6aad91b7e591ccd839dbce38b9)"
             d="m 146.98337,241.27245 94.28908,-94.28908"
             id="path101"
             inkscape:connector-curvature="0" />
        </g>
        <g
           id="line2d29">
          <path
             transform="matrix(0.93809836,0,0,0.94986123,18.777744,15.569984)"
             style="fill:none;stroke:#000000;stroke-width:8;stroke-linecap:square;stroke-linejoin:round;stroke-miterlimit:4;stroke-dasharray:none"
             clip-path="url(#pf8859f6aad91b7e591ccd839dbce38b9)"
             d="m 241.27245,335.56154 94.28909,-94.28909"
             id="path104"
             inkscape:connector-curvature="0" />
        </g>
        <g
           id="line2d30">
          <path
             style="fill:none;stroke:#000000;stroke-width:8;stroke-linecap:square;stroke-linejoin:round;stroke-miterlimit:4;stroke-dasharray:none"
             clip-path="url(#pf8859f6aad91b7e591ccd839dbce38b9)"
             d="m 107.92755,335.56154 133.3449,0"
             id="path107"
             inkscape:connector-curvature="0" />
        </g>
        <g
           id="line2d31">
          <path
             transform="matrix(0.9710856,0,0,0.9710856,3.2363174,5.9626292)"
             style="fill:none;stroke:#000000;stroke-width:8;stroke-linecap:square;stroke-linejoin:round;stroke-miterlimit:4;stroke-dasharray:none"
             clip-path="url(#pf8859f6aad91b7e591ccd839dbce38b9)"
             d="M 107.92755,202.21663 13.638462,107.92755"
             id="path110"
             inkscape:connector-curvature="0" />
        </g>
        <g
           id="line2d32">
          <path
             style="fill:none;stroke:#000000;stroke-width:8;stroke-linecap:square;stroke-linejoin:round;stroke-miterlimit:4;stroke-dasharray:none"
             clip-path="url(#pf8859f6aad91b7e591ccd839dbce38b9)"
             d="m 107.92755,146.98337 0,-133.344908"
             id="path113"
             inkscape:connector-curvature="0" />
        </g>
        <g
           id="matplotlib.axis1" />
        <g
           id="matplotlib.axis2" />
        <g
           id="CircleCollection1">
          <defs
             id="defs118">
            <path
               id="coll0_0_a0b82d2682f3d8e3d8556fc4a5d6a3b4"
               d="M 0,0 C 0,0 0,0 0,0 0,0 0,0 0,0 0,0 0,0 0,0 0,0 0,0 0,0 0,0 0,0 0,0 0,0 0,0 0,0 0,0 0,0 0,0 0,0 0,0 0,0 Z"
               inkscape:connector-curvature="0" />
          </defs>
          <g
             clip-path="url(#pf8859f6aad91b7e591ccd839dbce38b9)"
             id="g121">
            <use
               style="fill:#fec7b8;stroke:#000000;stroke-width:1;stroke-linecap:butt;stroke-linejoin:round"
               xlink:href="#coll0_0_a0b82d2682f3d8e3d8556fc4a5d6a3b4"
               x="202.21663"
               y="107.92755"
               id="use123"
               width="349"
               height="349" />
          </g>
          <g
             clip-path="url(#pf8859f6aad91b7e591ccd839dbce38b9)"
             id="g125">
            <use
               style="fill:#fec7b8;stroke:#000000;stroke-width:1;stroke-linecap:butt;stroke-linejoin:round"
               xlink:href="#coll0_0_a0b82d2682f3d8e3d8556fc4a5d6a3b4"
               x="107.92755"
               y="13.638462"
               id="use127"
               width="349"
               height="349" />
          </g>
          <g
             clip-path="url(#pf8859f6aad91b7e591ccd839dbce38b9)"
             id="g129">
            <use
               style="fill:#fec7b8;stroke:#000000;stroke-width:1;stroke-linecap:butt;stroke-linejoin:round"
               xlink:href="#coll0_0_a0b82d2682f3d8e3d8556fc4a5d6a3b4"
               x="107.92755"
               y="335.56152"
               id="use131"
               width="349"
               height="349" />
          </g>
          <g
             clip-path="url(#pf8859f6aad91b7e591ccd839dbce38b9)"
             id="g133">
            <use
               style="fill:#fec7b8;stroke:#000000;stroke-width:1;stroke-linecap:butt;stroke-linejoin:round"
               xlink:href="#coll0_0_a0b82d2682f3d8e3d8556fc4a5d6a3b4"
               x="13.638462"
               y="241.27245"
               id="use135"
               width="349"
               height="349" />
          </g>
          <g
             clip-path="url(#pf8859f6aad91b7e591ccd839dbce38b9)"
             id="g137">
            <use
               style="fill:#fec7b8;stroke:#000000;stroke-width:1;stroke-linecap:butt;stroke-linejoin:round"
               xlink:href="#coll0_0_a0b82d2682f3d8e3d8556fc4a5d6a3b4"
               x="13.638462"
               y="107.92755"
               id="use139"
               width="349"
               height="349" />
          </g>
          <g
             clip-path="url(#pf8859f6aad91b7e591ccd839dbce38b9)"
             id="g141">
            <use
               style="fill:#fec7b8;stroke:#000000;stroke-width:1;stroke-linecap:butt;stroke-linejoin:round"
               xlink:href="#coll0_0_a0b82d2682f3d8e3d8556fc4a5d6a3b4"
               x="107.92755"
               y="202.21663"
               id="use143"
               width="349"
               height="349" />
          </g>
          <g
             clip-path="url(#pf8859f6aad91b7e591ccd839dbce38b9)"
             id="g145">
            <use
               style="fill:#fec7b8;stroke:#000000;stroke-width:1;stroke-linecap:butt;stroke-linejoin:round"
               xlink:href="#coll0_0_a0b82d2682f3d8e3d8556fc4a5d6a3b4"
               x="107.92755"
               y="146.98337"
               id="use147"
               width="349"
               height="349" />
          </g>
          <g
             clip-path="url(#pf8859f6aad91b7e591ccd839dbce38b9)"
             id="g149">
            <use
               style="fill:#fec7b8;stroke:#000000;stroke-width:1;stroke-linecap:butt;stroke-linejoin:round"
               xlink:href="#coll0_0_a0b82d2682f3d8e3d8556fc4a5d6a3b4"
               x="202.21663"
               y="241.27245"
               id="use151"
               width="349"
               height="349" />
          </g>
          <g
             clip-path="url(#pf8859f6aad91b7e591ccd839dbce38b9)"
             id="g153">
            <use
               style="fill:#fec7b8;stroke:#000000;stroke-width:1;stroke-linecap:butt;stroke-linejoin:round"
               xlink:href="#coll0_0_a0b82d2682f3d8e3d8556fc4a5d6a3b4"
               x="241.27245"
               y="13.638462"
               id="use155"
               width="349"
               height="349" />
          </g>
          <g
             clip-path="url(#pf8859f6aad91b7e591ccd839dbce38b9)"
             id="g157">
            <use
               style="fill:#fec7b8;stroke:#000000;stroke-width:1;stroke-linecap:butt;stroke-linejoin:round"
               xlink:href="#coll0_0_a0b82d2682f3d8e3d8556fc4a5d6a3b4"
               x="335.56152"
               y="107.92755"
               id="use159"
               width="349"
               height="349" />
          </g>
          <g
             clip-path="url(#pf8859f6aad91b7e591ccd839dbce38b9)"
             id="g161">
            <use
               style="fill:#fec7b8;stroke:#000000;stroke-width:1;stroke-linecap:butt;stroke-linejoin:round"
               xlink:href="#coll0_0_a0b82d2682f3d8e3d8556fc4a5d6a3b4"
               x="335.56152"
               y="241.27245"
               id="use163"
               width="349"
               height="349" />
          </g>
          <g
             clip-path="url(#pf8859f6aad91b7e591ccd839dbce38b9)"
             id="g165">
            <use
               style="fill:#fec7b8;stroke:#000000;stroke-width:1;stroke-linecap:butt;stroke-linejoin:round"
               xlink:href="#coll0_0_a0b82d2682f3d8e3d8556fc4a5d6a3b4"
               x="241.27245"
               y="146.98337"
               id="use167"
               width="349"
               height="349" />
          </g>
          <g
             clip-path="url(#pf8859f6aad91b7e591ccd839dbce38b9)"
             id="g169">
            <use
               style="fill:#fec7b8;stroke:#000000;stroke-width:1;stroke-linecap:butt;stroke-linejoin:round"
               xlink:href="#coll0_0_a0b82d2682f3d8e3d8556fc4a5d6a3b4"
               x="241.27245"
               y="202.21663"
               id="use171"
               width="349"
               height="349" />
          </g>
          <g
             clip-path="url(#pf8859f6aad91b7e591ccd839dbce38b9)"
             id="g173">
            <use
               style="fill:#fec7b8;stroke:#000000;stroke-width:1;stroke-linecap:butt;stroke-linejoin:round"
               xlink:href="#coll0_0_a0b82d2682f3d8e3d8556fc4a5d6a3b4"
               x="146.98337"
               y="107.92755"
               id="use175"
               width="349"
               height="349" />
          </g>
          <g
             clip-path="url(#pf8859f6aad91b7e591ccd839dbce38b9)"
             id="g177">
            <use
               style="fill:#fec7b8;stroke:#000000;stroke-width:1;stroke-linecap:butt;stroke-linejoin:round"
               xlink:href="#coll0_0_a0b82d2682f3d8e3d8556fc4a5d6a3b4"
               x="146.98337"
               y="241.27245"
               id="use179"
               width="349"
               height="349" />
          </g>
          <g
             clip-path="url(#pf8859f6aad91b7e591ccd839dbce38b9)"
             id="g181">
            <use
               style="fill:#fec7b8;stroke:#000000;stroke-width:1;stroke-linecap:butt;stroke-linejoin:round"
               xlink:href="#coll0_0_a0b82d2682f3d8e3d8556fc4a5d6a3b4"
               x="241.27245"
               y="335.56152"
               id="use183"
               width="349"
               height="349" />
          </g>
        </g>
      </g>
    </g>
    <flowRoot
       xml:space="preserve"
       id="flowRoot4661"
       style="font-style:normal;font-variant:normal;font-weight:normal;font-stretch:normal;font-size:40px;line-height:125%;font-family:KacstOne;-inkscape-font-specification:KacstOne;letter-spacing:0px;word-spacing:0px;fill:#000000;fill-opacity:1;stroke:none;stroke-width:1px;stroke-linecap:butt;stroke-linejoin:miter;stroke-opacity:1"
       transform="matrix(2.4462112,0,0,2.4462112,1434.7506,-555.07705)"><flowRegion
         id="flowRegion4663"><rect
           id="rect4665"
           width="1785.7142"
           height="442.85715"
           x="-951.42859"
           y="332.36221"
           style="font-style:normal;font-variant:normal;font-weight:normal;font-stretch:normal;font-family:KacstOne;-inkscape-font-specification:KacstOne" /></flowRegion><flowPara
         id="flowPara4667"
         style="font-style:normal;font-variant:normal;font-weight:normal;font-stretch:normal;font-size:70px;font-family:'Saucer BB';-inkscape-font-specification:'Saucer BB'">High Dimensional Inspector</flowPara></flowRoot>  </g>
</svg>
