<?xml version="1.0" encoding="iso-8859-1"?>
<!-- Generator: Adobe Illustrator 19.0.0, SVG Export Plug-In . SVG Version: 6.00 Build 0)  -->
<svg version="1.1" id="Layer_1" xmlns="http://www.w3.org/2000/svg" xmlns:xlink="http://www.w3.org/1999/xlink" x="0px" y="0px"
	 viewBox="0 0 512 512" style="enable-background:new 0 0 512 512;" xml:space="preserve">
<path style="fill:#E4F1FB;" d="M512,256c0,0-85.333,170.667-256,170.667S0,256,0,256S85.333,85.333,256,85.333S512,256,512,256z"/>
<path style="fill:#C9E3F7;" d="M512,256c0,0-85.333,170.667-256,170.667c0-42.667,0-284.444,0-341.333
	C426.667,85.333,512,256,512,256z"/>
<circle style="fill:#78B9EB;" cx="256" cy="256" r="128"/>
<path style="fill:#5A8BB0;" d="M256,128c70.692,0,128,57.307,128,128s-57.308,128-128,128"/>
<circle style="fill:#1E2E3B;" cx="256" cy="256" r="85.333"/>
<g>
	<circle style="fill:#FFFFFF;" cx="213.333" cy="298.667" r="42.667"/>
	<circle style="fill:#FFFFFF;" cx="312.889" cy="199.111" r="28.444"/>
</g>
<g>
</g>
<g>
</g>
<g>
</g>
<g>
</g>
<g>
</g>
<g>
</g>
<g>
</g>
<g>
</g>
<g>
</g>
<g>
</g>
<g>
</g>
<g>
</g>
<g>
</g>
<g>
</g>
<g>
</g>
</svg>
